<?xml version="1.0" standalone="no"?><!-- Generator: Gravit.io --><svg xmlns="http://www.w3.org/2000/svg" xmlns:xlink="http://www.w3.org/1999/xlink" style="isolation:isolate" viewBox="0 0 600 400" width="600" height="400"><defs><clipPath id="_clipPath_RDwzco9fU18VIkoSeAkg06XTXRG68BoH"><rect width="600" height="400"/></clipPath></defs><g clip-path="url(#_clipPath_RDwzco9fU18VIkoSeAkg06XTXRG68BoH)"><g id="Group"><g id="Group"><rect x="-4.691" y="-4.691" width="612.542" height="411.489" transform="matrix(1,0,0,1,0,0)" fill="rgb(66,46,14)"/><rect x="-19.435" y="355.864" width="656.773" height="8.042" transform="matrix(1,0,0,1,0,0)" fill="rgb(57,40,12)"/><rect x="-19.435" y="310.962" width="656.773" height="8.042" transform="matrix(1,0,0,1,0,0)" fill="rgb(57,40,12)"/><rect x="-19.435" y="266.06" width="656.773" height="8.042" transform="matrix(1,0,0,1,0,0)" fill="rgb(57,40,12)"/><rect x="-19.435" y="221.158" width="656.773" height="8.042" transform="matrix(1,0,0,1,0,0)" fill="rgb(57,40,12)"/><rect x="-19.435" y="176.257" width="656.773" height="8.042" transform="matrix(1,0,0,1,0,0)" fill="rgb(57,40,12)"/><rect x="-19.435" y="131.355" width="656.773" height="8.042" transform="matrix(1,0,0,1,0,0)" fill="rgb(57,40,12)"/><rect x="-19.435" y="86.453" width="656.773" height="8.042" transform="matrix(1,0,0,1,0,0)" fill="rgb(57,40,12)"/><rect x="-19.435" y="41.551" width="656.773" height="8.042" transform="matrix(1,0,0,1,0,0)" fill="rgb(57,40,12)"/><rect x="-19.435" y="0.993" width="656.773" height="8.042" transform="matrix(1,0,0,1,0,0)" fill="rgb(57,40,12)"/></g><path d=" M -5 407.333 L 70.419 331.914 C 62.06 330.79 55.97 332.236 52.119 336.223 C 51.491 332.148 49.8 328.653 47.015 325.706 C 45.417 332.15 43.108 336.645 40.056 339.161 C 39.914 332.176 36.315 326.618 29.23 322.458 C 26.201 330.236 21.107 335.813 13.919 339.161 C 17.012 332.15 17.022 326.592 13.919 322.458 C 6.844 322.353 3.215 317.362 3 307.457 L 3 140 L -8.654 140 L -23.333 405.333 L -5 407.333 Z " fill="rgb(181,166,66)"/><path d=" M -5.356 407.333 L 70.063 331.914 C 71.188 340.274 69.742 346.363 65.755 350.214 C 69.829 350.842 73.325 352.534 76.272 355.318 C 69.828 356.916 65.333 359.226 62.817 362.277 C 69.802 362.42 75.36 366.018 79.52 373.103 C 71.742 376.133 66.165 381.226 62.817 388.414 C 69.828 385.321 75.385 385.311 79.52 388.414 C 79.625 395.489 84.615 399.119 94.521 399.333 L 393.5 399.333 L 393.5 410.987 L -3.356 425.667 L -5.356 407.333 Z " fill="rgb(181,166,66)"/><path d=" M 608.835 407.333 L 533.416 331.914 C 541.775 330.79 547.865 332.236 551.716 336.223 C 552.344 332.148 554.035 328.653 556.819 325.706 C 558.417 332.15 560.727 336.645 563.779 339.161 C 563.921 332.176 567.52 326.618 574.605 322.458 C 577.634 330.236 582.728 335.813 589.916 339.161 C 586.823 332.15 586.813 326.592 589.916 322.458 C 596.99 322.353 600.62 317.362 600.835 307.457 L 600.835 140 L 612.489 140 L 627.168 405.333 L 608.835 407.333 Z " fill="rgb(181,166,66)"/><path d=" M 609.19 407.333 L 533.771 331.914 C 532.647 340.274 534.093 346.363 538.08 350.214 C 534.005 350.842 530.51 352.534 527.563 355.318 C 534.007 356.916 538.502 359.226 541.018 362.277 C 534.033 362.42 528.475 366.018 524.315 373.103 C 532.093 376.133 537.67 381.226 541.018 388.414 C 534.007 385.321 528.449 385.311 524.315 388.414 C 524.21 395.489 519.219 399.119 509.314 399.333 L 210.335 399.333 L 210.335 410.987 L 607.19 425.667 L 609.19 407.333 Z " fill="rgb(181,166,66)"/><path d=" M -4.443 -5.296 L 70.976 70.123 C 62.617 71.247 56.527 69.801 52.676 65.814 C 52.048 69.889 50.357 73.384 47.573 76.331 C 45.974 69.887 43.665 65.392 40.613 62.876 C 40.471 69.861 36.872 75.419 29.787 79.579 C 26.758 71.801 21.664 66.224 14.476 62.876 C 17.569 69.887 17.579 75.445 14.476 79.579 C 7.402 79.684 3.772 84.675 3.557 94.58 L 3.557 262.037 L -8.097 262.037 L -22.776 -3.296 L -4.443 -5.296 Z " fill="rgb(181,166,66)"/><path d=" M -4.798 -5.296 L 70.62 70.123 C 71.745 61.763 70.299 55.674 66.312 51.823 C 70.387 51.195 73.882 49.503 76.829 46.719 C 70.385 45.121 65.89 42.811 63.374 39.76 C 70.359 39.617 75.917 36.019 80.077 28.934 C 72.299 25.904 66.722 20.811 63.374 13.623 C 70.385 16.716 75.942 16.726 80.077 13.623 C 80.182 6.548 85.173 2.918 95.078 2.704 L 394.057 2.704 L 394.057 -8.95 L -2.798 -23.63 L -4.798 -5.296 Z " fill="rgb(181,166,66)"/><path d=" M 608.835 -5.296 L 533.416 70.123 C 541.775 71.247 547.865 69.801 551.716 65.814 C 552.344 69.889 554.035 73.384 556.819 76.331 C 558.417 69.887 560.727 65.392 563.779 62.876 C 563.921 69.861 567.52 75.419 574.605 79.579 C 577.634 71.801 582.728 66.224 589.916 62.876 C 586.823 69.887 586.813 75.445 589.916 79.579 C 596.99 79.684 600.62 84.675 600.835 94.58 L 600.835 262.037 L 612.489 262.037 L 627.168 -3.296 L 608.835 -5.296 Z " fill="rgb(181,166,66)"/><path d=" M 609.747 -5.296 L 534.329 70.123 C 533.204 61.763 534.65 55.674 538.637 51.823 C 534.562 51.195 531.067 49.503 528.12 46.719 C 534.564 45.121 539.059 42.811 541.575 39.76 C 534.59 39.617 529.032 36.019 524.872 28.934 C 532.65 25.904 538.227 20.811 541.575 13.623 C 534.564 16.716 529.007 16.726 524.872 13.623 C 524.767 6.548 519.776 2.918 509.871 2.704 L 210.892 2.704 L 210.892 -8.95 L 607.747 -23.63 L 609.747 -5.296 Z " fill="rgb(181,166,66)"/></g></g></svg>