<?xml version="1.0" standalone="no"?>
<!-- Generator: Gravit.io -->
<svg xmlns="http://www.w3.org/2000/svg" xmlns:xlink="http://www.w3.org/1999/xlink" style="isolation:isolate" viewBox="0 0 600 400" width="600" height="400">
<defs>
<clipPath id="_clipPath_hiDi17aydDPfbDt1yjqnNr1Xq3M4MaDC"><rect width="600" height="400"/>
</clipPath>
</defs>
<g clip-path="url(#_clipPath_hiDi17aydDPfbDt1yjqnNr1Xq3M4MaDC)">
<clipPath id="_clipPath_DTL42sSHSYqptcY7ql2YoPisFAI2BjmH">
<rect x="0" y="0" width="600" height="400" transform="matrix(1,0,0,1,0,0)" fill="rgb(255,255,255)"/>
</clipPath>
<g clip-path="url(#_clipPath_DTL42sSHSYqptcY7ql2YoPisFAI2BjmH)">
<g id="Group"><g id="Group"><g id="Group"><rect x="-4.691" y="-4.691" width="612.542" height="411.489" transform="matrix(1,0,0,1,0,0)" fill="rgb(66,46,14)"/>
<rect x="-19.435" y="355.864" width="656.773" height="8.042" transform="matrix(1,0,0,1,0,0)" fill="rgb(57,40,12)"/>
<rect x="-19.435" y="310.962" width="656.773" height="8.042" transform="matrix(1,0,0,1,0,0)" fill="rgb(57,40,12)"/>
<rect x="-19.435" y="266.06" width="656.773" height="8.042" transform="matrix(1,0,0,1,0,0)" fill="rgb(57,40,12)"/>
<rect x="-19.435" y="221.158" width="656.773" height="8.042" transform="matrix(1,0,0,1,0,0)" fill="rgb(57,40,12)"/>
<rect x="-19.435" y="176.257" width="656.773" height="8.042" transform="matrix(1,0,0,1,0,0)" fill="rgb(57,40,12)"/>
<rect x="-19.435" y="131.355" width="656.773" height="8.042" transform="matrix(1,0,0,1,0,0)" fill="rgb(57,40,12)"/>
<rect x="-19.435" y="86.453" width="656.773" height="8.042" transform="matrix(1,0,0,1,0,0)" fill="rgb(57,40,12)"/>
<rect x="-19.435" y="41.551" width="656.773" height="8.042" transform="matrix(1,0,0,1,0,0)" fill="rgb(57,40,12)"/>
<rect x="-19.435" y="0.993" width="656.773" height="8.042" transform="matrix(1,0,0,1,0,0)" fill="rgb(57,40,12)"/>
</g>
<path d=" M 3 400.333 L 78.419 324.914 C 70.06 323.79 63.97 325.236 60.119 329.223 C 59.491 325.148 57.8 321.653 55.015 318.706 C 53.417 325.15 51.108 329.645 48.056 332.161 C 47.914 325.176 44.315 319.618 37.23 315.458 C 34.201 323.236 29.107 328.813 21.919 332.161 C 25.012 325.15 25.022 319.592 21.919 315.458 C 14.844 315.353 11.215 310.362 11 300.457 L 11 133 L -0.654 133 L -15.333 398.333 L 3 400.333 Z " fill="rgb(181,166,66)"/>
<path d=" M 2.644 400.333 L 78.063 324.914 C 79.188 333.274 77.742 339.363 73.755 343.214 C 77.829 343.842 81.325 345.534 84.272 348.318 C 77.828 349.916 73.333 352.226 70.817 355.277 C 77.802 355.42 83.36 359.018 87.52 366.103 C 79.742 369.133 74.165 374.226 70.817 381.414 C 77.828 378.321 83.385 378.311 87.52 381.414 C 87.625 388.489 92.615 392.119 102.521 392.333 L 401.5 392.333 L 401.5 403.987 L 4.644 418.667 L 2.644 400.333 Z " fill="rgb(181,166,66)"/>
<path d=" M 597.835 400.333 L 522.416 324.914 C 530.775 323.79 536.865 325.236 540.716 329.223 C 541.344 325.148 543.035 321.653 545.819 318.706 C 547.417 325.15 549.727 329.645 552.779 332.161 C 552.921 325.176 556.52 319.618 563.605 315.458 C 566.634 323.236 571.728 328.813 578.916 332.161 C 575.823 325.15 575.813 319.592 578.916 315.458 C 585.99 315.353 589.62 310.362 589.835 300.457 L 589.835 133 L 601.489 133 L 616.168 398.333 L 597.835 400.333 Z " fill="rgb(181,166,66)"/>
<path d=" M 598.19 400.333 L 522.771 324.914 C 521.647 333.274 523.093 339.363 527.08 343.214 C 523.005 343.842 519.51 345.534 516.563 348.318 C 523.007 349.916 527.502 352.226 530.018 355.277 C 523.033 355.42 517.475 359.018 513.315 366.103 C 521.093 369.133 526.67 374.226 530.018 381.414 C 523.007 378.321 517.449 378.311 513.315 381.414 C 513.21 388.489 508.219 392.119 498.314 392.333 L 199.335 392.333 L 199.335 403.987 L 596.19 418.667 L 598.19 400.333 Z " fill="rgb(181,166,66)"/>
<path d=" M 3.557 -0.296 L 78.976 75.123 C 70.617 76.247 64.527 74.801 60.676 70.814 C 60.048 74.889 58.357 78.384 55.573 81.331 C 53.974 74.887 51.665 70.392 48.613 67.876 C 48.471 74.861 44.872 80.419 37.787 84.579 C 34.758 76.801 29.664 71.224 22.476 67.876 C 25.569 74.887 25.579 80.445 22.476 84.579 C 15.402 84.684 11.772 89.675 11.557 99.58 L 11.557 267.037 L -0.097 267.037 L -14.776 1.704 L 3.557 -0.296 Z " fill="rgb(181,166,66)"/>
<path d=" M 3.202 -0.296 L 78.62 75.123 C 79.745 66.763 78.299 60.674 74.312 56.823 C 78.387 56.195 81.882 54.503 84.829 51.719 C 78.385 50.121 73.89 47.811 71.374 44.76 C 78.359 44.617 83.917 41.019 88.077 33.934 C 80.299 30.904 74.722 25.811 71.374 18.623 C 78.385 21.716 83.942 21.726 88.077 18.623 C 88.182 11.548 93.173 7.918 103.078 7.704 L 402.057 7.704 L 402.057 -3.95 L 5.202 -18.63 L 3.202 -0.296 Z " fill="rgb(181,166,66)"/>
<path d=" M 597.835 -0.296 L 522.416 75.123 C 530.775 76.247 536.865 74.801 540.716 70.814 C 541.344 74.889 543.035 78.384 545.819 81.331 C 547.417 74.887 549.727 70.392 552.779 67.876 C 552.921 74.861 556.52 80.419 563.605 84.579 C 566.634 76.801 571.728 71.224 578.916 67.876 C 575.823 74.887 575.813 80.445 578.916 84.579 C 585.99 84.684 589.62 89.675 589.835 99.58 L 589.835 267.037 L 601.489 267.037 L 616.168 1.704 L 597.835 -0.296 Z " fill="rgb(181,166,66)"/>
<path d=" M 598.747 -0.296 L 523.329 75.123 C 522.204 66.763 523.65 60.674 527.637 56.823 C 523.562 56.195 520.067 54.503 517.12 51.719 C 523.564 50.121 528.059 47.811 530.575 44.76 C 523.59 44.617 518.032 41.019 513.872 33.934 C 521.65 30.904 527.227 25.811 530.575 18.623 C 523.564 21.716 518.007 21.726 513.872 18.623 C 513.767 11.548 508.776 7.918 498.871 7.704 L 199.892 7.704 L 199.892 -3.95 L 596.747 -18.63 L 598.747 -0.296 Z " fill="rgb(181,166,66)"/>
</g>
<g id="Group">
<g transform="matrix(1,0,0,1,72,92.751)">
<text transform="matrix(1,0,0,1,0.415,27)" style="font-family:&quot;Calibri&quot;;font-weight:400;font-size:36px;font-style:normal;fill:#FFFFFF;stroke:none;">This page is under construction.</text>
</g>
</g>
<g id="Group">
<g id="Group">
<g transform="matrix(1,0,0,1,65,191)">
<a xlink:href="https://scratch.mit.edu/discuss/topic/321823" target="_blank">
<text transform="matrix(1,0,0,1,0,13.5)" style="font-family:&quot;Calibri&quot;;font-weight:400;font-size:18px;font-style:normal;fill:#FFFFFF;stroke:none;">Why not help out? https://scratch.mit.edu/discuss/topic/321823 </text>
</a>
</g>
</g>
</g>
</g>
</g>
</g>
</svg>

