<?xml version="1.0" standalone="no"?>
<!-- Generator: Gravit.io -->
<svg xmlns="http://www.w3.org/2000/svg" xmlns:xlink="http://www.w3.org/1999/xlink" style="isolation:isolate" viewBox="0 0 595.276 841.89" width="595.276" height="841.89">
    <defs>
        <clipPath id="_clipPath_CYtOIW94U70dVGttUx3cBL1iE5ryZ9Qi">
            <rect width="595.276" height="841.89" />
        </clipPath>
    </defs>
    <g clip-path="url(#_clipPath_CYtOIW94U70dVGttUx3cBL1iE5ryZ9Qi)">
        <g id="backtext">
            <path d=" M 208.099 102.462 C 208.099 53.044 248.22 12.923 297.638 12.923 C 347.055 12.923 387.176 53.044 387.176 102.462 C 387.176 151.879 347.055 192 297.638 192 C 248.22 192 208.099 151.879 208.099 102.462 Z " fill="rgb(74,134,232)" />
            <path d=" M 209.61 86.014 C 212.152 72.345 217.803 59.763 225.802 49.031 L 242.856 46.447 L 263.562 57.786 L 301.03 55.321 L 318.779 69.865 L 310.644 95.008 L 307.932 114.975 L 286.24 106.101 L 254.935 111.524 L 291.663 134.202 L 263.562 164.522 L 246.554 135.681 L 225.108 123.602 L 229.298 98.952 L 209.61 86.014 Z " fill="rgb(33,119,33)" />
            <path d=" M 310.644 154.415 L 317.3 146.527 L 313.602 126.807 L 335.417 114.975 L 349.345 138.392 L 335.417 149.238 L 331.597 164.522 L 310.644 154.415 Z " fill="rgb(33,119,33)" />
            <path d=" M 262.928 19.91 L 277.736 29.932 L 299.428 24.262 L 321.613 42.257 L 328.022 38.313 L 335.417 29.932 L 345.414 26.738 C 331.585 17.989 315.198 12.923 297.638 12.923 C 285.333 12.923 273.604 15.411 262.928 19.91 Z " fill="rgb(255,255,255)" />
            <path d=" M 372.487 53.331 L 350.824 58.033 L 360.191 72.576 L 346.633 101.417 L 358.219 112.017 L 377.692 108.073 L 361.423 139.871 L 378.999 139.871 C 384.248 128.485 387.176 115.813 387.176 102.462 C 387.176 84.324 381.772 67.439 372.487 53.331 Z " fill="rgb(33,119,33)" />
            <g transform="matrix(1,0,0,1,6.462,218.846)">
                <text transform="matrix(1,0,0,1,178.066,14.964)" style="font-family:&quot;Calibri&quot;;font-weight:700;font-size:14px;font-style:normal;fill:#000000;stroke:none;">Hello there, I am Scott Milford. </text>
                <text transform="matrix(1,0,0,1,0.981,53.095)" style="font-family:&quot;Calibri&quot;;font-weight:400;font-size:14px;font-style:normal;fill:#000000;stroke:none;">Whether you are a friend or family member that followed the link I e-mailed or a person </text>
                <text transform="matrix(1,0,0,1,6.48,72.16)" style="font-family:&quot;Calibri&quot;;font-weight:400;font-size:14px;font-style:normal;fill:#000000;stroke:none;">who just so happened upon this website, I invite you to come take a look at how wildly </text>
                <text transform="matrix(1,0,0,1,220.404,91.226)" style="font-family:&quot;Calibri&quot;;font-weight:400;font-size:14px;font-style:normal;fill:#000000;stroke:none;">my life has changed.</text>
                <text transform="matrix(1,0,0,1,14.499,129.356)" style="font-family:&quot;Calibri&quot;;font-weight:400;font-size:14px;font-style:normal;fill:#000000;stroke:none;">I am, or rather was, a history professor at Kellson University in Riversville Vermont. I </text>
                <text transform="matrix(1,0,0,1,43.449,148.422)" style="font-family:&quot;Calibri&quot;;font-weight:400;font-size:14px;font-style:normal;fill:#000000;stroke:none;">lived a rather calm and uneventful life, up until about two years ago when I </text>
                <text transform="matrix(1,0,0,1,5.455,167.487)" style="font-family:&quot;Calibri&quot;;font-weight:400;font-size:14px;font-style:normal;fill:#000000;stroke:none;">unexpectedly disappeared from the face of the earth. A creature normally relegated to </text>
                <text transform="matrix(1,0,0,1,12.834,186.553)" style="font-family:&quot;Calibri&quot;;font-weight:400;font-size:14px;font-style:normal;fill:#000000;stroke:none;">the realm of fiction accidentally ripped me from my existence and deposited me in a </text>
                <text transform="matrix(1,0,0,1,8.487,205.618)" style="font-family:&quot;Calibri&quot;;font-weight:400;font-size:14px;font-style:normal;fill:#000000;stroke:none;">world the likes of which most of you have only seen in your mind's eye. Although I am </text>
                <text transform="matrix(1,0,0,1,5.448,224.684)" style="font-family:&quot;Calibri&quot;;font-weight:400;font-size:14px;font-style:normal;fill:#000000;stroke:none;">now sealed within this new realm, by some miracle my smartphone still works and has </text>
                <text transform="matrix(1,0,0,1,99.186,243.749)" style="font-family:&quot;Calibri&quot;;font-weight:400;font-size:14px;font-style:normal;fill:#000000;stroke:none;">allowed me to document my findings for you to find here.</text>
                <text transform="matrix(1,0,0,1,1.808,281.88)" style="font-family:&quot;Calibri&quot;;font-weight:400;font-size:14px;font-style:normal;fill:#000000;stroke:none;">While I do miss my friends and family dearly, my new life is far from unenjoyable. I have </text>
                <text transform="matrix(1,0,0,1,8.381,300.945)" style="font-family:&quot;Calibri&quot;;font-weight:400;font-size:14px;font-style:normal;fill:#000000;stroke:none;">found jobs creating encyclopedias of this new world's various curiosities, and drawing </text>
                <text transform="matrix(1,0,0,1,181.484,320.011)" style="font-family:&quot;Calibri&quot;;font-weight:400;font-size:14px;font-style:normal;fill:#000000;stroke:none;">the most accurate maps to date.</text>
                <text transform="matrix(1,0,0,1,18.084,358.142)" style="font-family:&quot;Calibri&quot;;font-weight:400;font-size:14px;font-style:normal;fill:#000000;stroke:none;">So please, grab your favorite snack, find a comfortable spot to curl up, and let your </text>
                <text transform="matrix(1,0,0,1,20.139,377.207)" style="font-family:&quot;Calibri&quot;;font-weight:400;font-size:14px;font-style:normal;fill:#000000;stroke:none;">mind run free as you read about this wondrous reality I have been transported to.</text>
                <text transform="matrix(1,0,0,1,0,432.266)" style="font-family:&quot;Calibri&quot;;font-weight:400;font-size:12px;font-style:normal;fill:#000000;stroke:none;">Signed,</text>
                <text transform="matrix(1,0,0,1,0,448.607)" style="font-family:&quot;Calibri&quot;;font-weight:400;font-size:12px;font-style:normal;fill:#000000;stroke:none;">The wanderer of worlds, The man lost to space, The one who will henceforth be known as,</text>
                <text transform="matrix(1,0,0,1,0,464.949)" style="font-family:&quot;Calibri&quot;;font-weight:400;font-size:12px;font-style:normal;fill:#000000;stroke:none;">Selphi Markam</text>
            </g>
        </g>
		<a xlink:href="https://clarencecraft.ddns.net:8000/the-world/compendium-of-compendia.html" target="_blank">
        <g id="link0">
            <g transform="matrix(1,0,0,1,244.962,741.231)">
                <text transform="matrix(1,0,0,1,0,25.652)" style="font-family:&quot;Calibri&quot;;font-weight:800;font-size:24px;font-style:normal;fill:#4f57ff;stroke:none;">Begin -&gt;</text>
            </g>
            <line x1="245.843" y1="775.032" x2="340.92" y2="775.032" vector-effect="non-scaling-stroke" stroke-width="4" stroke="rgb(79,87,255)" stroke-linejoin="miter" stroke-linecap="square" stroke-miterlimit="3" />
        </g>
		</a>
    </g>
</svg>