<?xml version="1.0" standalone="no"?>
<!-- Generator: Gravit.io -->
<svg xmlns="http://www.w3.org/2000/svg" xmlns:xlink="http://www.w3.org/1999/xlink" style="isolation:isolate" viewBox="0 0 850.394 1238.74" width="850.394" height="1238.74">
    <defs>
        <clipPath id="_clipPath_fGQT4egsn8qqqyxQjqWdhPx16aajD30t">
            <rect width="850.394" height="1238.74" />
        </clipPath>
    </defs>
    <g clip-path="url(#_clipPath_fGQT4egsn8qqqyxQjqWdhPx16aajD30t)">
        <g id="page">
            <path d=" M 753.273 1086.724 C 754.08 1097.958 755.057 1109.211 756.213 1120.487 Q 762.361 1180.43 813.083 1214.245 L 813.083 1214.245 L 73.777 1214.245 Q 5.524 1175.862 7.685 1120.487 C 30.807 527.983 138.171 382.504 129.208 139.831 L 167.832 146.853 L 128.7 128.354 C 128.094 116.573 127.213 104.548 126.036 92.221 C 121.708 46.91 109.557 22.109 73.777 18.444 Q 39.669 14.951 7.685 75.314 L 733.158 75.314 Q 758.51 17.959 790.028 18.444 C 826.988 19.013 841.763 60.444 842.286 92.221 C 848.101 445.458 734.957 748.324 751.957 1065.722 L 709.091 1078.322 L 753.273 1086.724 Z " fill="rgb(208,186,163)" />
            <path d=" M 7.685 75.314 C 26.691 38.002 47.204 18.995 69.196 18.262 L 789.984 18.262 C 768.294 18.819 749.372 37.856 733.158 75.314 L 7.685 75.314 Z " fill="rgb(225,204,182)" />
        </g>
    </g>
</svg>